<?xml version="1.0" encoding="UTF-8"?>
<svg xmlns="http://www.w3.org/2000/svg" xmlns:xlink="http://www.w3.org/1999/xlink" width="22px" height="22px" viewBox="0 0 22 22" version="1.1">
<g id="surface1">
<path style=" stroke:none;fill-rule:nonzero;fill:rgb(14.117647%,24.705882%,30.196078%);fill-opacity:1;" d="M 20.222656 3.125 C 19.070312 1.972656 17.546875 1.34375 15.917969 1.34375 C 14.289062 1.34375 12.761719 1.976562 11.609375 3.128906 L 11.007812 3.730469 L 10.394531 3.121094 C 9.242188 1.96875 7.710938 1.328125 6.082031 1.328125 C 4.457031 1.328125 2.929688 1.964844 1.78125 3.109375 C 0.628906 4.261719 -0.00390625 5.792969 0 7.421875 C 0 9.046875 0.640625 10.574219 1.789062 11.726562 L 10.550781 20.484375 C 10.671875 20.605469 10.835938 20.671875 10.992188 20.671875 C 11.152344 20.671875 11.316406 20.609375 11.4375 20.488281 L 20.214844 11.742188 C 21.367188 10.59375 22 9.0625 22 7.433594 C 22.003906 5.808594 21.375 4.277344 20.222656 3.125 Z M 19.328125 10.851562 L 10.992188 19.15625 L 2.675781 10.839844 C 1.761719 9.925781 1.257812 8.710938 1.257812 7.421875 C 1.257812 6.128906 1.757812 4.914062 2.671875 4.007812 C 3.582031 3.097656 4.792969 2.59375 6.082031 2.59375 C 7.375 2.59375 8.589844 3.097656 9.503906 4.011719 L 10.558594 5.066406 C 10.804688 5.3125 11.203125 5.3125 11.449219 5.066406 L 12.496094 4.019531 C 13.410156 3.105469 14.625 2.601562 15.914062 2.601562 C 17.199219 2.601562 18.414062 3.105469 19.328125 4.015625 C 20.242188 4.929688 20.742188 6.140625 20.742188 7.433594 C 20.746094 8.726562 20.242188 9.9375 19.328125 10.851562 Z M 19.328125 10.851562 "/>
</g>
</svg>
