<svg xmlns="http://www.w3.org/2000/svg" width="64" height="40"><path d="M59.52 16.96l-1.66-6.55a1 1 0 00.8-.97V8.38a4.193 4.193 0 00-4.21-4.16H46.9V2.05A2.064 2.064 0 0044.83 0H6.35a2.057 2.057 0 00-2.07 2.05V20a1 1 0 002 0V2.05a.068.068 0 01.07-.07h38.48a.067.067 0 01.06.07V20a1.005 1.005 0 002.01 0v-1.12h11.82a3.278 3.278 0 013.12 2.24h-3.12a1 1 0 00-1 .99v2.11a3.133 3.133 0 003.14 3.11H62v4.35h-2.62a6.375 6.375 0 00-12 0h-.48v-7.46a1.005 1.005 0 00-2.01 0v7.46H24.1a6.368 6.368 0 00-11.99 0H6.35a.067.067 0 01-.07-.06v-2.18h4.34a.99.99 0 100-1.98H1a.99.99 0 100 1.98h3.28v2.18a2.055 2.055 0 002.07 2.04h5.41v.07a6.345 6.345 0 0012.69 0v-.07h22.58v.07a6.345 6.345 0 0012.69 0v-.07H63a.994.994 0 001-.99V22.11a5.238 5.238 0 00-4.48-5.15zM46.9 6.2h7.55a2.2 2.2 0 012.2 2.18v.07H46.9V6.2zm0 10.7v-6.47h8.9l1.64 6.47H46.9zM18.1 38.02a4.29 4.29 0 114.35-4.29 4.326 4.326 0 01-4.35 4.29zm35.28 0a4.29 4.29 0 114.34-4.29 4.319 4.319 0 01-4.34 4.29zM62 25.35h-1.14a1.137 1.137 0 01-1.14-1.13V23.1H62v2.25zm-43.9 6.33a2.05 2.05 0 102.08 2.05 2.064 2.064 0 00-2.08-2.05zm35.28 0a2.05 2.05 0 102.07 2.05 2.064 2.064 0 00-2.07-2.05zm-11.76-4.22H26.66a.99.99 0 100 1.98h14.96a.99.99 0 100-1.98zm-25.65-4.23H3.14a.99.99 0 100 1.98h12.83a.99.99 0 100-1.98zM34.85 9.79a1.027 1.027 0 00-1.42 0l-8.91 8.81-4.64-4.58a1.008 1.008 0 00-1.42 0 .984.984 0 000 1.4l5.35 5.28a1.007 1.007 0 00.71.29 1.042 1.042 0 00.71-.29l9.62-9.51a.984.984 0 000-1.4z" fill="#243f4d" fill-rule="evenodd"/></svg>