<svg xmlns="http://www.w3.org/2000/svg" width="22" height="22"><path d="M20.223 3.125a6.035 6.035 0 00-4.305-1.781 6.048 6.048 0 00-4.309 1.785l-.601.601-.613-.609a6.064 6.064 0 00-4.313-1.793 6.059 6.059 0 00-4.3 1.781A6.037 6.037 0 000 7.422c0 1.625.64 3.152 1.79 4.305l8.76 8.757a.636.636 0 00.442.188c.16 0 .324-.063.445-.184l8.778-8.746A6.041 6.041 0 0022 7.434a6.031 6.031 0 00-1.777-4.309zm-.895 7.727l-8.336 8.304-8.316-8.316a4.805 4.805 0 01-1.418-3.418c0-1.293.5-2.508 1.414-3.414a4.793 4.793 0 013.41-1.414c1.293 0 2.508.504 3.422 1.418l1.055 1.054a.63.63 0 00.89 0l1.047-1.046a4.805 4.805 0 013.418-1.418c1.285 0 2.5.503 3.414 1.414a4.795 4.795 0 011.414 3.418 4.779 4.779 0 01-1.414 3.418zm0 0" fill="#243f4d"/></svg>