<svg width="64" height="64" viewBox="0 0 48 48" xmlns="http://www.w3.org/2000/svg" fill="#fff"><g data-name="Layer 2"><path fill="none" d="M0 0h48v48H0z" data-name="invisible box"/><path d="M41.8 8H21.7A6.2 6.2 0 0016 4a6 6 0 00-5.6 4H6.2A2.1 2.1 0 004 10a2.1 2.1 0 002.2 2h4.2a6 6 0 005.6 4 6.2 6.2 0 005.7-4h20.1a2.1 2.1 0 002.2-2 2.1 2.1 0 00-2.2-2zM16 12a2 2 0 112-2 2 2 0 01-2 2zm25.8 10h-4.1a6.2 6.2 0 00-5.7-4 6 6 0 00-5.6 4H6.2a2 2 0 100 4h20.2a6 6 0 005.6 4 6.2 6.2 0 005.7-4h4.1a2 2 0 100-4zM32 26a2 2 0 112-2 2 2 0 01-2 2zm9.8 10H24.7a6.2 6.2 0 00-5.7-4 6 6 0 00-5.6 4H6.2a2 2 0 100 4h7.2a6 6 0 005.6 4 6.2 6.2 0 005.7-4h17.1a2 2 0 100-4zM19 40a2 2 0 112-2 2 2 0 01-2 2z" data-name="icons Q2"/></g></svg>