<svg xmlns="http://www.w3.org/2000/svg" width="36.41" height="37.719"><path d="M1.98 37.71A1.989 1.989 0 010 35.719V8.441a.916.916 0 01.27-.643L7.74.256a.9.9 0 01.64-.267h19.09a1.98 1.98 0 011.97 1.991v2.87a.9.9 0 11-1.8 0V1.98a.172.172 0 00-.17-.17H9.28v5.552a1.98 1.98 0 01-1.97 1.99h-5.5v26.367a.167.167 0 00.17.17h25.49a.173.173 0 00.17-.17v-13.9a.9.9 0 111.8 0v13.9a1.98 1.98 0 01-1.97 1.991H1.98zm1.1-30.178h4.23a.173.173 0 00.17-.17V3.097zM7.06 31.24a.91.91 0 010-1.82H11l1.39-5.066a.9.9 0 01.23-.4l.02-.015H7.06a.91.91 0 010-1.82h7.38l5.43-5.48H7.06a.911.911 0 010-1.821h14.62l8.43-8.5a3.038 3.038 0 014.32 0l1.06 1.071a3.1 3.1 0 010 4.356L18 29.382a.889.889 0 01-.39.234l-5.7 1.6c-.03.007-.23.029-.23.029H7.06zm5.92-2.218l2.65-.744-1.91-1.933zm1.56-4.424l2.83 2.853L31.8 12.889l-2.83-2.852zm16.84-17L30.25 8.75l2.83 2.853 1.13-1.147a1.264 1.264 0 000-1.782l-1.06-1.071a1.225 1.225 0 00-.88-.369 1.265 1.265 0 00-.89.368z" fill="#a3bbc8" fill-rule="evenodd"/></svg>